<svg width="106" height="103" viewBox="0 0 106 103" fill="none" xmlns="http://www.w3.org/2000/svg">
<path d="M5.4 88.28H4.48C4.48 86.0667 5.10667 82.0267 6.36 76.16C7.61333 70.2933 8.30667 66.7867 8.44 65.64C8.6 64.4667 8.69333 63.5867 8.72 63C6.21333 63.0533 4.21333 63.44 2.72 64.16C1.94667 63.28 1.46667 61.9867 1.28 60.28C2.58667 59.8267 4.82667 59.6 8 59.6L20.6 60C21.2133 60 22.1867 59.9733 23.52 59.92C23.6267 60.7733 23.68 61.4933 23.68 62.08C23.68 63.3333 22.8933 63.96 21.32 63.96C20.84 63.96 20.08 63.88 19.04 63.72C18.0267 63.56 17.1333 63.4667 16.36 63.44C16.28 64.2933 15.5867 67.76 14.28 73.84C13 79.92 12.36 84.3867 12.36 87.24C11.1867 87.9333 8.86667 88.28 5.4 88.28ZM23.1319 88.24H22.8119C22.7319 87.8667 22.6919 87.2933 22.6919 86.52C22.6919 85.72 23.0119 83.68 23.6519 80.4C24.3185 77.0933 24.6519 75.2267 24.6519 74.8C24.6519 74.3467 24.5319 73.8933 24.2919 73.44C24.0519 72.96 23.8119 72.6 23.5719 72.36L23.2119 72L23.2919 71.4C24.8919 70.8933 27.5452 70.64 31.2519 70.64C31.5985 71.3067 31.8119 72.0933 31.8919 73C33.5185 71.1867 34.9585 70.28 36.2119 70.28C37.8385 70.28 38.7319 71.6533 38.8919 74.4C38.8385 74.4533 38.7719 74.5467 38.6919 74.68C38.6119 74.7867 38.4252 74.9867 38.1319 75.28C37.8385 75.5733 37.5319 75.84 37.2119 76.08C36.3052 76.6933 35.3452 77.0533 34.3319 77.16C34.3052 77.16 34.1185 76.8667 33.7719 76.28C33.4519 75.6933 33.1719 75.4 32.9319 75.4C32.7185 75.4 32.3052 75.64 31.6919 76.12C31.6119 76.6 31.4519 77.4133 31.2119 78.56C30.9985 79.7067 30.8252 80.6533 30.6919 81.4C30.2919 83.3733 30.0919 85.0267 30.0919 86.36L30.1319 87.56C28.9585 88.0133 26.6252 88.24 23.1319 88.24ZM57.5559 71.8C56.9959 73.5333 56.5159 75.6 56.1159 78C55.7159 80.3733 55.5159 82.04 55.5159 83C55.5159 83.9333 55.6626 84.4 55.9559 84.4L57.9559 83.84L58.6759 85.84C57.8226 86.5067 56.7293 87.12 55.3959 87.68C54.0893 88.2133 52.9293 88.48 51.9159 88.48C50.1826 88.48 49.0893 87.7333 48.6359 86.24C46.5293 87.7333 44.6626 88.48 43.0359 88.48C41.4359 88.48 40.1959 87.8933 39.3159 86.72C38.4359 85.5467 37.9959 83.8667 37.9959 81.68C37.9959 78.6667 38.7693 76.0133 40.3159 73.72C41.8626 71.4267 43.9026 70.28 46.4359 70.28C47.8226 70.28 49.2359 70.6667 50.6759 71.44C50.8893 70.96 51.0626 70.6133 51.1959 70.4C53.1159 70.4 55.2359 70.8667 57.5559 71.8ZM45.5159 81.2C45.5159 82.5333 45.6093 83.3733 45.7959 83.72C45.9826 84.0667 46.3293 84.24 46.8359 84.24C47.3426 84.24 47.8359 84.04 48.3159 83.64C48.4226 80.5467 48.9293 77.3067 49.8359 73.92C49.4359 73.68 48.9693 73.56 48.4359 73.56C47.9293 73.56 47.4626 73.8533 47.0359 74.44C46.6359 75.0267 46.3293 75.76 46.1159 76.64C45.7159 78.32 45.5159 79.84 45.5159 81.2ZM60.0459 83.44L60.5659 75.08C60.5659 74.36 60.4593 73.8 60.2459 73.4C60.0593 72.9733 59.6593 72.3867 59.0459 71.64L59.2059 71.04C61.2593 70.56 62.9659 70.32 64.3259 70.32C65.6859 70.32 66.6326 70.64 67.1659 71.28C67.7259 71.8933 68.0059 72.7733 68.0059 73.92C68.0059 75.0667 67.7926 76.7467 67.3659 78.96C66.9659 81.1733 66.7659 82.64 66.7659 83.36C66.7659 84.0533 66.9659 84.4 67.3659 84.4C68.0059 84.4 68.8326 83.8 69.8459 82.6C70.8859 81.3733 71.5659 80.1733 71.8859 79L68.9259 76.16C69.0326 75.04 69.2726 74 69.6459 73.04C70.0193 72.0533 70.3526 71.36 70.6459 70.96L71.1259 70.32C74.3526 70.32 75.9659 71.6533 75.9659 74.32C75.9659 76.0533 75.4326 78.0133 74.3659 80.2C73.3259 82.36 71.8593 84.28 69.9659 85.96C68.0726 87.64 66.1126 88.48 64.0859 88.48C61.3926 88.48 60.0459 86.8 60.0459 83.44ZM75.9563 80.76C75.9563 77.4533 76.9563 74.88 78.9563 73.04C80.9829 71.2 83.4763 70.28 86.4363 70.28C88.4896 70.28 90.1296 70.7333 91.3563 71.64C92.6096 72.52 93.2363 73.7067 93.2363 75.2C93.2363 76.2933 92.9029 77.2667 92.2363 78.12C91.5696 78.9733 90.7563 79.6267 89.7963 80.08C87.7696 80.9867 86.0096 81.5333 84.5163 81.72L83.5163 81.84C83.8096 83.6 84.6896 84.48 86.1563 84.48C86.7963 84.48 87.5029 84.3467 88.2763 84.08C89.0496 83.7867 89.6629 83.4933 90.1163 83.2L90.7963 82.8L92.0763 84.52C92.0763 84.52 91.9296 84.6667 91.6363 84.96C91.4763 85.12 91.0896 85.44 90.4763 85.92C89.8896 86.3733 89.2629 86.7733 88.5963 87.12C87.9563 87.4667 87.1296 87.7733 86.1163 88.04C85.1029 88.3333 84.0896 88.48 83.0763 88.48C80.8096 88.48 79.0496 87.8267 77.7962 86.52C76.5696 85.1867 75.9563 83.2667 75.9563 80.76ZM83.3563 79.2C84.1296 79.0933 84.9029 78.4667 85.6763 77.32C86.4496 76.1467 86.8363 75.1733 86.8363 74.4C86.8363 73.6 86.6096 73.2 86.1563 73.2C85.4896 73.2 84.8763 73.72 84.3163 74.76C83.7563 75.8 83.4363 77.28 83.3563 79.2ZM104.578 85.76C103.725 86.5067 102.605 87.1467 101.218 87.68C99.8315 88.2133 98.5648 88.48 97.4181 88.48C96.2981 88.48 95.3781 88.16 94.6581 87.52C93.9381 86.8533 93.5781 85.9067 93.5781 84.68C93.5781 83.4533 94.2448 80.04 95.5781 74.44C96.9381 68.8133 97.6181 64.64 97.6181 61.92C97.6181 61.3333 97.5381 60.5867 97.3781 59.68C99.8848 58.9867 102.311 58.64 104.658 58.64C104.898 59.0667 105.018 59.76 105.018 60.72C105.018 62.5333 104.338 66.4933 102.978 72.6C101.645 78.68 100.978 82.1867 100.978 83.12C100.978 84.0533 101.138 84.52 101.458 84.52C101.725 84.52 102.298 84.3467 103.178 84L103.618 83.8L104.578 85.76Z" fill="white"/>
<g clip-path="url(#clip0)">
<path d="M64.5833 29.3533V37.0833C64.5833 37.6233 64.9299 38.1016 65.4432 38.2716C65.5716 38.3133 65.7032 38.3333 65.8332 38.3333C66.2232 38.3333 66.5999 38.15 66.8399 37.8233L71.3616 31.67L64.5833 29.3533Z" fill="white"/>
<path d="M89.4751 0.231738C89.0917 -0.0399286 88.5884 -0.0765953 88.1717 0.141738L50.6717 19.7251C50.2284 19.9567 49.9667 20.4301 50.0034 20.9284C50.0417 21.4284 50.3734 21.8551 50.8451 22.0167L61.2701 25.5801L83.4717 6.59674L66.2917 27.2951L83.7634 33.2667C83.8934 33.3101 84.0301 33.3334 84.1667 33.3334C84.3934 33.3334 84.6184 33.2717 84.8167 33.1517C85.1334 32.9584 85.3484 32.6334 85.4034 32.2684L89.9867 1.43507C90.0551 0.968405 89.8584 0.505071 89.4751 0.231738V0.231738Z" fill="white"/>
</g>
<path d="M15.4769 32C33.1191 47.7825 42.7312 48.7405 59.4769 39" stroke="white" stroke-width="3" stroke-dasharray="10 10"/>
<defs>
<clipPath id="clip0">
<rect width="40" height="40" fill="white" transform="translate(50)"/>
</clipPath>
</defs>
</svg>
